# xmcd
#
# Track frame offsets:
#	150
#	12469
#	29477
#	42235
#	60613
#	76837
#	90476
#	109564
#
# Disc length: 1634 seconds
#
# Revision: 1
# Processed by: cddbd v1.5.1PL0 Copyright (c) Steve Scherf et al.
# Submitted via: audiograbber 1.82.02
#
DISCID=57066008
DTITLE=Amanda Cunningham - Gypsy's Daughter
DYEAR=2002
DGENRE=Country
TTITLE0=Liquor and Lies
TTITLE1=Walk Away
TTITLE2=Anytime You Say
TTITLE3=Jolene
TTITLE4=Hunter and the Bull
TTITLE5=Long Way to Go
TTITLE6=Gypsy's Daughter
TTITLE7=Will You Be My Baby
EXTD=
EXTT0=
EXTT1=
EXTT2=
EXTT3=
EXTT4=
EXTT5=
EXTT6=
EXTT7=
PLAYORDER=
